<?xml version="1.0" standalone="no"?>
<!DOCTYPE svg PUBLIC "-//W3C//DTD SVG 20010904//EN"
 "http://www.w3.org/TR/2001/REC-SVG-20010904/DTD/svg10.dtd">
<svg version="1.0" xmlns="http://www.w3.org/2000/svg"
 width="328.000000pt" height="328.000000pt" viewBox="0 0 328.000000 328.000000"
 preserveAspectRatio="xMidYMid meet">
<metadata>
Created by potrace 1.11, written by Peter Selinger 2001-2013
</metadata>
<g transform="translate(0.000000,328.000000) scale(0.100000,-0.100000)"
fill="#000000" stroke="none">
<path d="M410 2685 l0 -265 265 0 265 0 0 265 0 265 -265 0 -265 0 0 -265z"/>
<path d="M1300 2390 l0 -260 260 0 260 0 0 260 0 260 -260 0 -260 0 0 -260z"/>
<path d="M1980 2160 l0 -260 -260 0 -260 0 0 -260 0 -260 -260 0 -260 0 0
-260 0 -260 780 0 780 0 0 780 0 780 -260 0 -260 0 0 -260z"/>
<path d="M2620 2160 l0 -70 135 0 135 0 0 70 0 70 -135 0 -135 0 0 -70z"/>
<path d="M700 1800 l0 -260 265 0 265 0 0 260 0 260 -265 0 -265 0 0 -260z"/>
<path d="M2620 1810 l0 -70 135 0 135 0 0 70 0 70 -135 0 -135 0 0 -70z"/>
<path d="M2620 1465 l0 -65 135 0 135 0 0 65 0 65 -135 0 -135 0 0 -65z"/>
<path d="M2620 1120 l0 -70 135 0 135 0 0 70 0 70 -135 0 -135 0 0 -70z"/>
<path d="M1140 605 l0 -135 70 0 70 0 0 135 0 135 -70 0 -70 0 0 -135z"/>
<path d="M1480 605 l0 -135 70 0 70 0 0 135 0 135 -70 0 -70 0 0 -135z"/>
<path d="M1830 605 l0 -135 70 0 70 0 0 135 0 135 -70 0 -70 0 0 -135z"/>
<path d="M2180 605 l0 -135 65 0 65 0 0 135 0 135 -65 0 -65 0 0 -135z"/>
<path d="M2752 190 c0 -14 2 -19 5 -12 2 6 2 18 0 25 -3 6 -5 1 -5 -13z"/>
</g>
</svg>
